<?xml version="1.0" encoding="UTF-8"?>
<svg xmlns="http://www.w3.org/2000/svg" width="256" height="256" viewBox="0 0 256 256" role="img" aria-labelledby="title desc">
  <title id="title">野牛</title>
  <desc id="desc">A colorful celestial bison icon for the tarot easter egg.</desc>
  <defs>
    <radialGradient id="bg" cx="34%" cy="26%" r="78%">
      <stop offset="0" stop-color="hsl(137 90% 32%)"/>
      <stop offset=".55" stop-color="hsl(23 70% 17%)"/>
      <stop offset="1" stop-color="#080711"/>
    </radialGradient>
    <linearGradient id="gold" x1="28" x2="224" y1="24" y2="230">
      <stop offset="0" stop-color="#fff0a8"/>
      <stop offset=".48" stop-color="hsl(48 86% 70%)"/>
      <stop offset="1" stop-color="#a66f2e"/>
    </linearGradient>
    <filter id="glow" x="-30%" y="-30%" width="160%" height="160%">
      <feGaussianBlur stdDeviation="5" result="blur"/>
      <feColorMatrix in="blur" values="1 0 0 0 0.9 0 1 0 0 0.55 0 0 1 0 1 0 0 0 0.55 0"/>
      <feMerge><feMergeNode/><feMergeNode in="SourceGraphic"/></feMerge>
    </filter>
  </defs>
  <rect width="256" height="256" rx="34" fill="url(#bg)"/>
  <circle cx="128" cy="128" r="100" fill="none" stroke="url(#gold)" stroke-width="2" opacity=".58"/>
  <circle cx="128" cy="128" r="76" fill="none" stroke="url(#gold)" stroke-width="1.4" opacity=".32"/>
  <circle cx="134" cy="84" r="1.6" fill="url(#gold)" opacity=".72"/><circle cx="94" cy="74" r="3.6" fill="url(#gold)" opacity=".72"/><circle cx="190" cy="80" r="3.1" fill="url(#gold)" opacity=".72"/><circle cx="31" cy="95" r="2.6" fill="url(#gold)" opacity=".72"/><circle cx="68" cy="223" r="2.1" fill="url(#gold)" opacity=".72"/><circle cx="203" cy="80" r="1.6" fill="url(#gold)" opacity=".72"/><circle cx="171" cy="20" r="3.6" fill="url(#gold)" opacity=".72"/><circle cx="55" cy="113" r="3.1" fill="url(#gold)" opacity=".72"/><circle cx="114" cy="169" r="2.6" fill="url(#gold)" opacity=".72"/><circle cx="152" cy="99" r="2.1" fill="url(#gold)" opacity=".72"/>
  <g filter="url(#glow)">
    
    <path d="M86 92 C67 44 44 40 35 70 M104 83 C98 38 124 26 128 73 M152 83 C158 38 132 26 128 73 M170 92 C189 44 212 40 221 70" fill="none" stroke="hsl(48 86% 70%)" stroke-width="8" stroke-linecap="round"/>
    <ellipse cx="128" cy="130" rx="55" ry="68" fill="hsl(23 80% 58%)"/>
    <path d="M94 154 C108 195 148 195 164 154 C146 166 113 166 94 154Z" fill="hsl(137 82% 66%)" opacity=".62"/>
    <circle cx="107" cy="119" r="7" fill="#070711"/><circle cx="149" cy="119" r="7" fill="#070711"/>
    <path d="M128 137 l15 16 h-30Z" fill="hsl(48 86% 70%)"/>
  
  </g>
  <path d="M37 215 C86 229 170 230 219 214" fill="none" stroke="url(#gold)" stroke-width="3" stroke-linecap="round" opacity=".74"/>
</svg>